# xmcd
#
# Track frame offsets:
#	150
#	16803
#	33883
#	51106
#	66276
#	81877
#	98075
#	115384
#	131201
#	150896
#	167886
#	183930
#	199295
#
# Disc length: 2885 seconds
#
# Revision: 1
# Processed by: cddbd v1.5.1PL0 Copyright (c) Steve Scherf et al.
# Submitted via: audiograbber 1.83.01
#
DISCID=a60b430d
DTITLE=Μάκης Χριστοδουλόπουλος - Βράδια αξημέρωτα
DYEAR=1900
DGENRE=
TTITLE0=Πώς να σου μιλήσω
TTITLE1=Λόγια άδικα
TTITLE2=Αφήστε με
TTITLE3=¨Ονειρα χαμένα
TTITLE4=Δικαίωμα σου
TTITLE5=Απόψε βρέχει μοναξιά
TTITLE6=Εγώ δεν είμαι άγιος
TTITLE7=Ξέρω τι φταίει
TTITLE8=Το πλήρωσα ακριβά
TTITLE9=Έγκλημα
TTITLE10=Έχω αρρωστήσει
TTITLE11=Ακόμα σ' αγαπώ
TTITLE12=Λυπάμαι
EXTD=
EXTT0=
EXTT1=
EXTT2=
EXTT3=
EXTT4=
EXTT5=
EXTT6=
EXTT7=
EXTT8=
EXTT9=
EXTT10=
EXTT11=
EXTT12=
PLAYORDER=
